#Comment line ignore any data following # character 
#Hierarchical Translation and Rotation (.htr) file 
[Header]	
#Header keywords are followed by a single value 
FileType HTR		#Single word string
DataType HTRS		#Translation followed by rotation and scale data
FileVersion 1		#integer
NumSegments 84		#integer
NumFrames 2		#integer
DataFrameRate 30		#integer, data frame rate in this file
EulerRotationOrder ZYX
CalibrationUnits mm
RotationUnits Degrees
GlobalAxisofGravity Y
BoneLengthAxis Y
ScaleFactor 1.00
[SegmentNames&Hierarchy]
#CHILD	PARENT
MASTER GLOBAL
root MASTER
chest root
L_mid_tent01 root
R_mid_tent01 root
spine01 root
Bip01_Neck chest
L_humerus chest
R_humerus chest
weapon_bone chest
Bip01_Head Bip01_Neck
eye_left_bone Bip01_Head
eye_right_bone Bip01_Head
L_forearm L_humerus
L_front_hand L_forearm
L_weapon_bone L_forearm
L_front_hand01_01 L_front_hand
L_front_hand02_01 L_front_hand
L_front_hand03_01 L_front_hand
L_front_hand01_02 L_front_hand01_01
L_front_hand02_02 L_front_hand02_01
L_front_hand03_02 L_front_hand03_01
R_forearm R_humerus
R_front_hand R_forearm
R_weapon_bone R_forearm
R_front_hand01_01 R_front_hand
R_front_hand02_01 R_front_hand
R_front_hand03_01 R_front_hand
R_front_hand01_02 R_front_hand01_01
R_front_hand02_02 R_front_hand02_01
R_front_hand03_02 R_front_hand03_01
null_rope01_connect L_mid_tent01
Rope1_Seg01 null_rope01_connect
Rope1_Seg02 Rope1_Seg01
Rope1_Seg03 Rope1_Seg02
Rope1_Seg04 Rope1_Seg03
Rope1_Seg05 Rope1_Seg04
Rope1_Seg06 Rope1_Seg05
Rope1_Seg07 Rope1_Seg06
Rope1_Seg09 Rope1_Seg07
L_mid_hand01 Rope1_Seg09
L_mid_hand02 Rope1_Seg09
L_mid_hand03 Rope1_Seg09
null_rope02_connect R_mid_tent01
Rope2_Seg01 null_rope02_connect
Rope2_Seg02 Rope2_Seg01
Rope2_Seg03 Rope2_Seg02
Rope2_Seg04 Rope2_Seg03
Rope2_Seg05 Rope2_Seg04
Rope2_Seg06 Rope2_Seg05
Rope2_Seg07 Rope2_Seg06
Rope2_Seg09 Rope2_Seg07
R_mid_hand01 Rope2_Seg09
R_mid_hand02 Rope2_Seg09
R_mid_hand03 Rope2_Seg09
spine02 spine01
spine03 spine02
pelvis spine03
null_rope03_connect pelvis
null_rope04_connect pelvis
Rope3_Seg01 null_rope03_connect
Rope3_Seg02 Rope3_Seg01
Rope3_Seg03 Rope3_Seg02
Rope3_Seg04 Rope3_Seg03
Rope3_Seg05 Rope3_Seg04
Rope3_Seg06 Rope3_Seg05
Rope3_Seg07 Rope3_Seg06
Rope3_Seg08 Rope3_Seg07
Rope3_Seg09 Rope3_Seg08
R_rear_hand01 Rope3_Seg09
R_rear_hand02 Rope3_Seg09
R_rear_hand03 Rope3_Seg09
Rope4_Seg01 null_rope04_connect
Rope4_Seg02 Rope4_Seg01
Rope4_Seg03 Rope4_Seg02
Rope4_Seg04 Rope4_Seg03
Rope4_Seg05 Rope4_Seg04
Rope4_Seg06 Rope4_Seg05
Rope4_Seg07 Rope4_Seg06
Rope4_Seg08 Rope4_Seg07
Rope4_Seg09 Rope4_Seg08
L_rear_hand01 Rope4_Seg09
L_rear_hand02 Rope4_Seg09
L_rear_hand03 Rope4_Seg09
[BasePosition]
#SegmentName Tx, Ty, Tz, Rx, Ry, Rz, BoneLength
MASTER 0.000000 0.000000 0.000000 -90.000000 0.000000 0.000000 10.000000 
root 0.000000 0.000000 0.000000 0.000000 0.000000 0.000000 10.000000 
chest 0.000000 0.000000 0.000000 0.000000 0.000000 0.000000 10.000000 
L_mid_tent01 0.000000 0.000000 0.000000 0.000000 0.000000 0.000000 10.000000 
R_mid_tent01 0.000000 0.000000 0.000000 0.000000 0.000000 0.000000 10.000000 
spine01 0.000000 0.000000 0.000000 0.000000 0.000000 0.000000 10.000000 
Bip01_Neck 0.000000 0.000000 0.000000 0.000000 0.000000 0.000000 10.000000 
L_humerus 0.000000 0.000000 0.000000 0.000000 0.000000 0.000000 10.000000 
R_humerus 0.000000 0.000000 0.000000 0.000000 0.000000 0.000000 10.000000 
weapon_bone 0.000000 0.000000 0.000000 0.000000 0.000000 0.000000 10.000000 
Bip01_Head 0.000000 0.000000 0.000000 0.000000 0.000000 0.000000 10.000000 
eye_left_bone 0.000000 0.000000 0.000000 0.000000 0.000000 0.000000 10.000000 
eye_right_bone 0.000000 0.000000 0.000000 0.000000 0.000000 0.000000 10.000000 
L_forearm 0.000000 0.000000 0.000000 0.000000 0.000000 0.000000 10.000000 
L_front_hand 0.000000 0.000000 0.000000 0.000000 0.000000 0.000000 10.000000 
L_weapon_bone 0.000000 0.000000 0.000000 0.000000 0.000000 0.000000 10.000000 
L_front_hand01_01 0.000000 0.000000 0.000000 0.000000 0.000000 0.000000 10.000000 
L_front_hand02_01 0.000000 0.000000 0.000000 0.000000 0.000000 0.000000 10.000000 
L_front_hand03_01 0.000000 0.000000 0.000000 0.000000 0.000000 0.000000 10.000000 
L_front_hand01_02 0.000000 0.000000 0.000000 0.000000 0.000000 0.000000 10.000000 
L_front_hand02_02 0.000000 0.000000 0.000000 0.000000 0.000000 0.000000 10.000000 
L_front_hand03_02 0.000000 0.000000 0.000000 0.000000 0.000000 0.000000 10.000000 
R_forearm 0.000000 0.000000 0.000000 0.000000 0.000000 0.000000 10.000000 
R_front_hand 0.000000 0.000000 0.000000 0.000000 0.000000 0.000000 10.000000 
R_weapon_bone 0.000000 0.000000 0.000000 0.000000 0.000000 0.000000 10.000000 
R_front_hand01_01 0.000000 0.000000 0.000000 0.000000 0.000000 0.000000 10.000000 
R_front_hand02_01 0.000000 0.000000 0.000000 0.000000 0.000000 0.000000 10.000000 
R_front_hand03_01 0.000000 0.000000 0.000000 0.000000 0.000000 0.000000 10.000000 
R_front_hand01_02 0.000000 0.000000 0.000000 0.000000 0.000000 0.000000 10.000000 
R_front_hand02_02 0.000000 0.000000 0.000000 0.000000 0.000000 0.000000 10.000000 
R_front_hand03_02 0.000000 0.000000 0.000000 0.000000 0.000000 0.000000 10.000000 
null_rope01_connect 0.000000 0.000000 0.000000 0.000000 0.000000 0.000000 10.000000 
Rope1_Seg01 0.000000 0.000000 0.000000 0.000000 0.000000 0.000000 10.000000 
Rope1_Seg02 0.000000 0.000000 0.000000 0.000000 0.000000 0.000000 10.000000 
Rope1_Seg03 0.000000 0.000000 0.000000 0.000000 0.000000 0.000000 10.000000 
Rope1_Seg04 0.000000 0.000000 0.000000 0.000000 0.000000 0.000000 10.000000 
Rope1_Seg05 0.000000 0.000000 0.000000 0.000000 0.000000 0.000000 10.000000 
Rope1_Seg06 0.000000 0.000000 0.000000 0.000000 0.000000 0.000000 10.000000 
Rope1_Seg07 0.000000 0.000000 0.000000 0.000000 0.000000 0.000000 10.000000 
Rope1_Seg09 0.000000 0.000000 0.000000 0.000000 0.000000 0.000000 10.000000 
L_mid_hand01 0.000000 0.000000 0.000000 0.000000 0.000000 0.000000 10.000000 
L_mid_hand02 0.000000 0.000000 0.000000 0.000000 0.000000 0.000000 10.000000 
L_mid_hand03 0.000000 0.000000 0.000000 0.000000 0.000000 0.000000 10.000000 
null_rope02_connect 0.000000 0.000000 0.000000 0.000000 0.000000 0.000000 10.000000 
Rope2_Seg01 0.000000 0.000000 0.000000 0.000000 0.000000 0.000000 10.000000 
Rope2_Seg02 0.000000 0.000000 0.000000 0.000000 0.000000 0.000000 10.000000 
Rope2_Seg03 0.000000 0.000000 0.000000 0.000000 0.000000 0.000000 10.000000 
Rope2_Seg04 0.000000 0.000000 0.000000 0.000000 0.000000 0.000000 10.000000 
Rope2_Seg05 0.000000 0.000000 0.000000 0.000000 0.000000 0.000000 10.000000 
Rope2_Seg06 0.000000 0.000000 0.000000 0.000000 0.000000 0.000000 10.000000 
Rope2_Seg07 0.000000 0.000000 0.000000 0.000000 0.000000 0.000000 10.000000 
Rope2_Seg09 0.000000 0.000000 0.000000 0.000000 0.000000 0.000000 10.000000 
R_mid_hand01 0.000000 0.000000 0.000000 0.000000 0.000000 0.000000 10.000000 
R_mid_hand02 0.000000 0.000000 0.000000 0.000000 0.000000 0.000000 10.000000 
R_mid_hand03 0.000000 0.000000 0.000000 0.000000 0.000000 0.000000 10.000000 
spine02 0.000000 0.000000 0.000000 0.000000 0.000000 0.000000 10.000000 
spine03 0.000000 0.000000 0.000000 0.000000 0.000000 0.000000 10.000000 
pelvis 0.000000 0.000000 0.000000 0.000000 0.000000 0.000000 10.000000 
null_rope03_connect 0.000000 0.000000 0.000000 0.000000 0.000000 0.000000 10.000000 
null_rope04_connect 0.000000 0.000000 0.000000 0.000000 0.000000 0.000000 10.000000 
Rope3_Seg01 0.000000 0.000000 0.000000 0.000000 0.000000 0.000000 10.000000 
Rope3_Seg02 0.000000 0.000000 0.000000 0.000000 0.000000 0.000000 10.000000 
Rope3_Seg03 0.000000 0.000000 0.000000 0.000000 0.000000 0.000000 10.000000 
Rope3_Seg04 0.000000 0.000000 0.000000 0.000000 0.000000 0.000000 10.000000 
Rope3_Seg05 0.000000 0.000000 0.000000 0.000000 0.000000 0.000000 10.000000 
Rope3_Seg06 0.000000 0.000000 0.000000 0.000000 0.000000 0.000000 10.000000 
Rope3_Seg07 0.000000 0.000000 0.000000 0.000000 0.000000 0.000000 10.000000 
Rope3_Seg08 0.000000 0.000000 0.000000 0.000000 0.000000 0.000000 10.000000 
Rope3_Seg09 0.000000 0.000000 0.000000 0.000000 0.000000 0.000000 10.000000 
R_rear_hand01 0.000000 0.000000 0.000000 0.000000 0.000000 0.000000 10.000000 
R_rear_hand02 0.000000 0.000000 0.000000 0.000000 0.000000 0.000000 10.000000 
R_rear_hand03 0.000000 0.000000 0.000000 0.000000 0.000000 0.000000 10.000000 
Rope4_Seg01 0.000000 0.000000 0.000000 0.000000 0.000000 0.000000 10.000000 
Rope4_Seg02 0.000000 0.000000 0.000000 0.000000 0.000000 0.000000 10.000000 
Rope4_Seg03 0.000000 0.000000 0.000000 0.000000 0.000000 0.000000 10.000000 
Rope4_Seg04 0.000000 0.000000 0.000000 0.000000 0.000000 0.000000 10.000000 
Rope4_Seg05 0.000000 0.000000 0.000000 0.000000 0.000000 0.000000 10.000000 
Rope4_Seg06 0.000000 0.000000 0.000000 0.000000 0.000000 0.000000 10.000000 
Rope4_Seg07 0.000000 0.000000 0.000000 0.000000 0.000000 0.000000 10.000000 
Rope4_Seg08 0.000000 0.000000 0.000000 0.000000 0.000000 0.000000 10.000000 
Rope4_Seg09 0.000000 0.000000 0.000000 0.000000 0.000000 0.000000 10.000000 
L_rear_hand01 0.000000 0.000000 0.000000 0.000000 0.000000 0.000000 10.000000 
L_rear_hand02 0.000000 0.000000 0.000000 0.000000 0.000000 0.000000 10.000000 
L_rear_hand03 0.000000 0.000000 0.000000 0.000000 0.000000 0.000000 10.000000 
#Beginning of Data. Separated by tabs
#Fr	Tx	Ty	Tz	Rx	Ry	Rz	SF
[MASTER]
20 -1581.789063 -3690.456543 0.000000 0.000433 0.002307 -68.736320 4015.162109
21 -1624.336548 -3900.485352 0.000000 0.000461 0.002302 -67.346008 4225.192871
[root]
20 -62.822083 69.159203 1047.267090 -87.278488 -8.885105 -179.888687 1051.426636
21 -62.822083 75.990105 1056.091797 -87.604683 -8.309781 179.983795 1060.684204
[chest]
20 -84.512650 -34.090519 0.000000 12.926895 -0.745634 156.384796 91.129311
21 -84.512650 -34.090519 0.000000 11.473355 -0.743737 156.386261 91.129311
[L_mid_tent01]
20 23.228750 24.509907 -223.761200 -5.080203 14.019619 0.059948 226.294907
21 23.228750 24.509907 -223.761200 -5.764242 18.863184 0.072411 226.294907
[R_mid_tent01]
20 23.228794 24.509907 226.238495 -163.157364 -15.511199 -8.743896 228.744751
21 23.228794 24.509907 226.238495 -162.989441 -12.659646 -2.472554 228.744751
[spine01]
20 -0.361383 -0.195265 0.000000 0.001815 0.001488 11.320962 0.410763
21 -0.361383 -0.195265 0.000000 0.001815 0.001488 11.320962 0.410763
[Bip01_Neck]
20 165.484543 71.581718 0.000119 175.896118 1.177290 24.871183 180.302734
21 165.484543 71.581718 0.000119 175.896118 1.177290 24.871183 180.302734
[L_humerus]
20 -13.983130 -135.272980 -120.471481 156.468689 46.566101 -110.408508 181.680161
21 -13.983130 -135.272980 -120.471481 154.127441 51.691238 -111.746429 181.680161
[R_humerus]
20 -13.983309 -135.273102 125.287651 -163.613708 -38.472439 -102.442940 184.909012
21 -13.983309 -135.273102 125.287651 -163.001190 -43.948959 -102.456642 184.909012
[weapon_bone]
20 235.964890 -300.705902 0.000000 0.000000 -89.951546 -128.212341 382.234833
21 235.964890 -300.705902 0.000000 0.000000 -89.951546 -128.212341 382.234833
[Bip01_Head]
20 201.313644 211.516754 15.929883 7.480490 3.740857 -67.490097 292.438507
21 201.313644 211.516754 15.929891 6.143123 3.647598 -66.745392 292.438507
[eye_left_bone]
20 -24.626970 125.451866 -64.772606 0.000000 -90.000000 -99.840431 143.318359
21 -24.626970 125.451866 -64.772606 0.000000 -90.000000 -99.840431 143.318359
[eye_right_bone]
20 -24.626970 125.451866 64.327362 0.000000 -89.965736 80.156380 143.117676
21 -24.626970 125.451866 64.327362 0.000000 -89.965736 80.156380 143.117676
[L_forearm]
20 322.776093 0.000000 -0.000119 0.000357 -0.002320 -107.505997 322.776093
21 322.776093 0.000000 -0.000119 0.000357 -0.002320 -107.506004 322.776093
[L_front_hand]
20 241.149185 -0.042021 -3.300071 -179.431961 -2.195943 -5.942918 241.171753
21 241.149185 -0.042021 -3.300071 -179.431961 -2.195943 -5.942917 241.171753
[L_weapon_bone]
20 156.183838 0.000000 0.000000 0.000014 0.000007 0.000001 156.183838
21 156.183838 0.000000 0.000000 0.000014 0.000007 0.000001 156.183838
[L_front_hand01_01]
20 86.095154 20.947098 -0.655860 0.139491 -0.584553 24.181786 88.609184
21 86.095154 20.947098 -0.655860 0.139491 -0.584553 24.181786 88.609184
[L_front_hand02_01]
20 86.935165 -11.437475 24.513514 119.190460 -21.905661 -12.119137 91.046425
21 86.935165 -11.437475 24.513514 119.190460 -21.905655 -12.119137 91.046425
[L_front_hand03_01]
20 86.637497 -14.123976 -20.424902 -120.437630 20.554031 -14.327168 90.126129
21 86.637497 -14.123976 -20.424902 -120.437630 20.554037 -14.327168 90.126129
[L_front_hand01_02]
20 71.020905 -0.000179 0.000030 0.000334 -0.002323 -106.379684 71.020905
21 71.020905 -0.000179 0.000030 0.000334 -0.002323 -106.379684 71.020905
[L_front_hand02_02]
20 71.020927 -0.000119 0.000060 0.000334 -0.002323 -106.379684 71.020927
21 71.020927 -0.000119 0.000060 0.000334 -0.002323 -106.379684 71.020927
[L_front_hand03_02]
20 71.020905 -0.000060 0.000060 0.000334 -0.002323 -106.379684 71.020905
21 71.020905 -0.000060 0.000060 0.000334 -0.002323 -106.379684 71.020905
[R_forearm]
20 322.776428 -0.000060 0.000030 0.196737 0.083011 -114.368637 322.776428
21 322.776428 -0.000060 0.000030 0.196737 0.083011 -114.368637 322.776428
[R_front_hand]
20 238.847015 -0.006795 2.210259 -0.341870 1.692705 -0.151779 238.857239
21 238.847015 -0.006795 2.210259 -0.341870 1.692705 -0.151779 238.857239
[R_weapon_bone]
20 155.664093 0.002503 -0.000030 0.003487 0.001180 -90.988930 155.664078
21 155.664093 0.002503 -0.000030 0.003487 0.001180 -90.988930 155.664078
[R_front_hand01_01]
20 87.624611 14.231146 22.918642 -119.218071 -22.033403 12.303374 91.683487
21 87.624611 14.231146 22.918642 -119.218056 -22.033411 12.303375 91.683487
[R_front_hand02_01]
20 89.356956 14.367283 -19.491137 120.545532 20.947184 14.823009 92.579636
21 89.356956 14.367283 -19.491137 120.545532 20.947184 14.823009 92.579636
[R_front_hand03_01]
20 87.286232 -22.307278 -0.143439 -0.231628 -0.392922 -24.567768 90.091743
21 87.286232 -22.307278 -0.143439 -0.231628 -0.392922 -24.567768 90.091743
[R_front_hand01_02]
20 71.020905 0.000060 0.000119 0.002323 -0.000334 106.381714 71.020905
21 71.020905 0.000060 0.000119 0.002323 -0.000334 106.381714 71.020905
[R_front_hand02_02]
20 71.020844 -0.000030 -0.000119 0.002323 -0.000334 106.381714 71.020836
21 71.020844 -0.000030 -0.000119 0.002323 -0.000334 106.381714 71.020836
[R_front_hand03_02]
20 71.020905 0.000000 0.000030 0.002323 -0.000334 106.381714 71.020905
21 71.020905 0.000000 0.000030 0.002323 -0.000334 106.381714 71.020905
[null_rope01_connect]
20 328.732483 0.000000 -0.000238 -92.268806 82.799164 -174.348389 328.732483
21 328.732483 0.000000 -0.000238 -103.028236 86.359604 174.019989 328.732483
[Rope1_Seg01]
20 -0.000024 0.000014 0.000097 -9.735490 2.483656 102.489693 0.000101
21 -0.000025 0.000013 0.000102 -8.325833 0.197555 103.227798 0.000106
[Rope1_Seg02]
20 139.999863 -0.000179 0.000000 3.376136 0.379333 -5.248576 139.999863
21 139.999863 -0.000179 0.000000 2.425186 -0.472050 -3.338015 139.999863
[Rope1_Seg03]
20 139.999924 0.000060 -0.000060 6.232250 -0.390215 -7.012644 139.999924
21 139.999924 0.000060 -0.000060 5.150569 -2.906282 -4.418762 139.999924
[Rope1_Seg04]
20 139.999924 -0.000060 -0.000119 13.171862 -1.769886 -10.523398 139.999924
21 139.999924 -0.000060 -0.000119 3.919299 -0.639479 -4.707861 139.999924
[Rope1_Seg05]
20 139.999832 0.000119 -0.000060 1.401931 3.289456 -4.868073 139.999832
21 139.999832 0.000119 -0.000060 -10.724929 11.220468 -1.129723 139.999832
[Rope1_Seg06]
20 139.999954 0.000119 -0.000060 -0.177402 1.665890 -1.766779 139.999954
21 139.999954 0.000119 -0.000060 -5.742236 4.630632 0.250043 139.999954
[Rope1_Seg07]
20 139.999985 0.000060 0.000000 0.939402 0.620573 -1.284160 139.999985
21 139.999985 0.000060 0.000000 -3.298321 2.418124 0.233921 139.999985
[Rope1_Seg09]
20 121.602913 0.000119 -0.000089 -89.793175 -1.359789 0.847147 121.602913
21 121.602913 0.000119 -0.000089 -89.793175 -1.359789 0.847147 121.602913
[L_mid_hand01]
20 103.859421 1.038730 8.195221 106.855484 -31.239275 -9.461397 104.187431
21 103.859421 1.038730 8.195221 106.855484 -31.239275 -9.461397 104.187431
[L_mid_hand02]
20 105.572853 -4.139662 -10.864139 -142.331345 25.752670 -28.774628 106.211075
21 105.572853 -4.139662 -10.864139 -142.331345 25.752670 -28.774628 106.211075
[L_mid_hand03]
20 104.641464 17.579376 -3.913581 -16.122810 9.734291 34.223598 106.179977
21 104.641464 17.579376 -3.913581 -16.122810 9.734291 34.223598 106.179977
[null_rope02_connect]
20 328.732849 0.000179 -0.000119 110.491676 -46.344883 146.591919 328.732849
21 328.732849 0.000179 -0.000119 115.524620 -48.331223 148.832413 328.732849
[Rope2_Seg01]
20 -0.000135 -0.000056 -0.000153 12.035489 -50.905388 149.579315 0.000211
21 -0.000137 -0.000051 -0.000153 5.068510 -57.656006 157.278336 0.000211
[Rope2_Seg02]
20 139.999741 -0.000060 -0.000119 2.780797 9.819159 -12.541890 139.999756
21 139.999741 -0.000060 -0.000119 0.884161 14.260393 -13.667811 139.999756
[Rope2_Seg03]
20 140.000107 0.000030 0.000000 9.041497 12.057817 -17.029057 140.000107
21 140.000107 0.000030 0.000000 6.452405 18.125671 -18.015932 140.000107
[Rope2_Seg04]
20 139.999802 0.000000 -0.000060 31.942623 15.371535 -21.991898 139.999802
21 139.999802 0.000000 -0.000060 32.882259 18.705475 -19.387602 139.999802
[Rope2_Seg05]
20 139.999985 -0.000060 0.000119 18.715036 -4.872364 -6.347408 139.999985
21 139.999985 -0.000060 0.000119 18.726852 -3.660873 -4.349000 139.999985
[Rope2_Seg06]
20 139.999893 -0.000030 -0.000119 -13.596849 -8.499762 13.683023 139.999893
21 139.999893 -0.000030 -0.000119 -16.741817 -8.060029 13.293806 139.999893
[Rope2_Seg07]
20 139.999893 0.000060 -0.000060 -6.344811 -10.236706 11.198271 139.999893
21 139.999893 0.000060 -0.000060 -7.128407 -11.326822 11.255980 139.999893
[Rope2_Seg09]
20 121.338966 0.000089 -0.000060 33.793236 -1.359788 -0.847141 121.338966
21 121.338966 0.000089 -0.000060 33.793236 -1.359788 -0.847141 121.338966
[R_mid_hand01]
20 104.680779 11.144459 -10.335981 -41.523792 25.424656 28.595957 105.778534
21 104.680779 11.144459 -10.335981 -41.523792 25.424656 28.595957 105.778534
[R_mid_hand02]
20 104.070427 2.443552 8.231699 72.847389 -32.746803 10.013901 104.424065
21 104.070427 2.443552 8.231699 72.847389 -32.746803 10.013901 104.424065
[R_mid_hand03]
20 106.028137 -11.221827 -5.996406 -167.901306 10.259192 -37.009720 106.788818
21 106.028137 -11.221827 -5.996406 -167.901306 10.259192 -37.009720 106.788818
[spine02]
20 129.756927 0.001550 0.000119 0.001147 -1.797838 -7.854275 129.756927
21 129.756927 0.001550 0.000119 0.001147 -1.797837 -7.854274 129.756927
[spine03]
20 79.115631 0.000000 -0.000119 1.459971 -2.848092 23.765965 79.115631
21 79.115631 0.000000 -0.000119 1.459971 -2.848092 23.765963 79.115631
[pelvis]
20 169.435242 0.051022 0.000000 -0.000005 0.000003 -4.322055 169.435257
21 169.435242 0.051022 0.000000 -0.000005 0.000003 -4.322055 169.435257
[null_rope03_connect]
20 -1.257226 -2.466202 137.391083 -79.082954 63.640793 175.990646 137.418976
21 -1.257226 -2.466202 137.391083 -80.119026 62.543682 174.367676 137.418976
[null_rope04_connect]
20 -1.259640 -2.480268 -137.844437 -79.082954 63.640793 175.990646 137.872513
21 -1.259640 -2.480268 -137.844437 -80.119026 62.543682 174.367676 137.872513
[Rope3_Seg01]
20 0.000034 -0.000049 0.000097 -128.094025 -4.765639 150.061600 0.000114
21 0.000038 -0.000048 0.000102 -127.976501 -5.496256 153.362564 0.000119
[Rope3_Seg02]
20 139.999924 -0.000119 0.000060 -1.150540 4.403331 4.036747 139.999924
21 139.999924 -0.000119 0.000060 -0.787320 3.351211 3.487247 139.999924
[Rope3_Seg03]
20 139.999924 -0.000119 0.000119 -0.991172 6.036931 5.806085 139.999924
21 139.999924 -0.000119 0.000119 -0.721369 4.538302 4.879689 139.999924
[Rope3_Seg04]
20 139.999924 0.000119 0.000000 -0.555850 8.492712 8.617746 139.999924
21 139.999924 0.000119 0.000000 -0.554108 6.342035 7.068663 139.999924
[Rope3_Seg05]
20 139.999924 -0.000238 0.000060 1.699856 14.813313 16.744709 139.999924
21 139.999924 -0.000238 0.000060 0.808683 10.754811 13.611350 139.999924
[Rope3_Seg06]
20 139.999893 -0.000119 -0.000060 1.677284 9.874802 10.367421 139.999893
21 139.999893 -0.000119 -0.000060 1.517685 11.037410 12.995612 139.999893
[Rope3_Seg07]
20 139.999771 0.000060 -0.000119 0.759807 -0.079458 -1.937695 139.999771
21 139.999771 0.000060 -0.000119 0.883203 4.498528 2.026224 139.999771
[Rope3_Seg08]
20 139.999985 -0.000060 0.000000 0.695331 -1.340451 -3.043737 139.999985
21 139.999985 -0.000060 0.000000 0.841404 2.170455 -0.323707 139.999985
[Rope3_Seg09]
20 90.185997 -0.000179 -0.000060 89.793228 -1.359877 -0.847183 90.185997
21 90.185997 -0.000179 -0.000060 89.793228 -1.359877 -0.847183 90.185997
[R_rear_hand01]
20 103.366196 -6.073594 -10.757982 -161.551193 16.666374 -30.088671 104.101845
21 103.366196 -6.073594 -10.757982 -161.551193 16.666374 -30.088671 104.101845
[R_rear_hand02]
20 100.509819 12.039542 -7.992327 -34.280552 19.289745 28.875523 101.543350
21 100.509819 12.039542 -7.992327 -34.280552 19.289745 28.875523 101.543350
[R_rear_hand03]
20 101.539970 5.215704 5.435467 83.366440 -30.933914 7.284830 101.819031
21 101.539970 5.215704 5.435467 83.366440 -30.933914 7.284830 101.819031
[Rope4_Seg01]
20 -0.000069 0.000098 0.000000 -35.773956 -8.623946 171.498581 0.000120
21 -0.000076 0.000097 0.000000 -34.366966 -9.718967 171.001312 0.000123
[Rope4_Seg02]
20 139.999985 0.000060 0.000119 42.662548 14.282439 -17.054626 139.999985
21 139.999985 0.000060 0.000119 37.681240 13.296058 -13.592248 139.999985
[Rope4_Seg03]
20 139.999924 0.000000 -0.000238 25.737225 -1.722981 -26.742647 139.999924
21 139.999924 0.000000 -0.000238 27.312824 2.174652 -21.462906 139.999924
[Rope4_Seg04]
20 139.999985 0.000000 0.000119 9.830097 -11.021657 -21.206074 139.999985
21 139.999985 0.000000 0.000119 12.371143 -6.549692 -18.715609 139.999985
[Rope4_Seg05]
20 139.999802 -0.000060 -0.000119 1.694069 -5.575877 -7.434784 139.999802
21 139.999802 -0.000060 -0.000119 3.259802 -5.388258 -8.346312 139.999802
[Rope4_Seg06]
20 139.999924 0.000000 0.000060 0.293486 -1.903140 -1.783989 139.999924
21 139.999924 0.000000 0.000060 0.786128 -3.523912 -3.293693 139.999924
[Rope4_Seg07]
20 139.999802 0.000000 0.000000 -0.134373 0.171744 1.643478 139.999802
21 139.999802 0.000000 0.000000 -0.033750 -3.273271 -1.011685 139.999802
[Rope4_Seg08]
20 139.999924 0.000000 0.000119 -1.696259 -0.128463 1.235186 139.999924
21 139.999924 0.000000 0.000119 -1.407717 -3.238708 -1.606306 139.999924
[Rope4_Seg09]
20 90.185791 0.000060 0.000060 -135.617828 2.228885 0.850567 90.185791
21 90.185791 0.000060 0.000060 -135.617828 2.228885 0.850567 90.185791
[L_rear_hand01]
20 101.696655 -8.392275 -7.654577 -34.454281 -18.946800 151.655121 102.329041
21 101.696655 -8.392275 -7.654577 -34.454281 -18.946800 151.655121 102.329041
[L_rear_hand02]
20 102.726799 -1.568258 5.773216 83.407906 30.330435 172.796509 102.900848
21 102.726799 -1.568258 5.773216 83.407906 30.330435 172.796509 102.900848
[L_rear_hand03]
20 104.552910 9.721220 -10.420293 -161.379868 -16.473232 -150.512238 105.519653
21 104.552910 9.721220 -10.420293 -161.379868 -16.473232 -150.512238 105.519653
